<?xml version="1.0" standalone="no"?>
<!DOCTYPE svg PUBLIC "-//W3C//DTD SVG 20010904//EN"
 "http://www.w3.org/TR/2001/REC-SVG-20010904/DTD/svg10.dtd">
<svg version="1.0" xmlns="http://www.w3.org/2000/svg"
 width="3058.000000pt" height="1560.000000pt" viewBox="0 0 3058.000000 1560.000000"
 preserveAspectRatio="xMidYMid meet">

<g transform="translate(0.000000,1560.000000) scale(0.100000,-0.100000)"
fill="#000000" stroke="none">
<path d="M15163 15575 c-83 -23 -147 -60 -217 -126 -52 -48 -76 -81 -120 -167
-68 -134 -1076 -2212 -1076 -2219 0 -2 17 9 38 25 249 197 628 348 982 392
109 13 361 13 470 -1 301 -37 598 -142 855 -302 105 -65 276 -201 355 -281
l54 -56 -79 -81 c-59 -59 -99 -90 -154 -117 -72 -36 -79 -37 -180 -37 -121 0
-148 9 -285 97 -158 101 -364 181 -551 213 -133 23 -367 23 -500 0 -473 -81
-881 -390 -1090 -828 -63 -131 -88 -205 -118 -336 -29 -132 -31 -451 -4 -585
122 -601 584 -1062 1184 -1183 136 -27 443 -24 583 6 180 38 367 118 540 230
89 58 152 74 265 69 123 -5 194 -39 308 -148 l82 -79 -65 -66 c-36 -37 -96
-92 -135 -123 l-70 -57 230 0 c237 -1 363 -11 570 -46 109 -18 341 -72 350
-81 2 -2 146 -298 320 -658 452 -935 422 -878 529 -985 103 -103 201 -161 333
-197 71 -19 109 -22 451 -26 204 -2 372 -1 372 2 0 7 -10 27 -1988 4071 -1829
3742 -1693 3465 -1734 3516 -44 55 -139 121 -213 149 -77 29 -218 36 -292 15z
m278 -3435 c264 -360 376 -548 416 -700 24 -92 24 -267 -1 -340 -47 -138 -127
-242 -246 -319 -98 -64 -182 -86 -320 -86 -138 0 -222 22 -320 86 -119 77
-199 181 -246 319 -25 73 -25 248 -1 340 24 90 111 265 199 395 103 154 362
505 370 502 3 -1 71 -90 149 -197z"/>
<path d="M14805 11217 c20 -134 83 -243 182 -319 89 -67 157 -90 280 -96 161
-7 275 37 379 145 56 59 112 171 120 239 l7 52 -74 12 c-101 17 -267 7 -413
-25 -182 -40 -325 -33 -452 20 l-36 15 7 -43z"/>
<path d="M12238 9953 c-395 -813 -718 -1482 -718 -1486 0 -5 -74 -165 -165
-356 -91 -192 -165 -352 -165 -356 0 -4 168 -5 373 -2 404 5 431 8 564 67 84
38 138 77 276 197 607 532 1450 1071 2119 1354 70 30 128 56 128 59 0 3 -40
13 -89 23 -124 24 -286 79 -416 141 -436 207 -764 530 -976 961 -118 241 -178
460 -202 741 l-12 135 -717 -1478z"/>
<path d="M17244 5949 c-555 -49 -1057 -372 -1347 -864 -102 -174 -183 -411
-213 -622 -22 -158 -14 -443 15 -587 184 -893 1029 -1500 1922 -1381 392 52
758 231 1017 498 l43 44 -73 68 c-40 37 -98 80 -128 94 -48 23 -68 26 -155 26
-111 0 -112 -1 -259 -90 -104 -64 -234 -119 -354 -151 -119 -32 -360 -44 -493
-25 -528 78 -960 495 -1066 1029 -23 117 -22 356 1 467 85 396 324 714 673
893 180 92 327 131 528 139 271 10 496 -53 763 -215 130 -79 240 -91 358 -37
53 23 194 148 194 170 0 16 -145 146 -243 218 -254 187 -553 298 -878 327
-127 11 -173 11 -305 -1z"/>
<path d="M21034 5949 c-710 -63 -1319 -571 -1512 -1260 -49 -174 -66 -323 -59
-533 9 -275 52 -453 167 -691 246 -508 711 -860 1270 -962 119 -21 448 -24
560 -5 333 59 602 181 850 388 301 250 503 590 592 994 20 93 22 132 22 340 0
263 -12 345 -80 550 -192 579 -696 1028 -1292 1150 -177 36 -340 45 -518 29z
m414 -483 c445 -98 800 -410 950 -838 49 -137 66 -243 66 -408 0 -225 -38
-380 -140 -580 -182 -356 -521 -607 -912 -675 -108 -19 -326 -19 -434 0 -332
58 -648 263 -833 540 -103 156 -177 335 -206 505 -16 94 -17 312 -1 406 54
325 239 628 502 823 149 111 362 203 530 231 41 6 82 13 90 15 39 10 322 -4
388 -19z"/>
<path d="M1449 5823 c-23 -54 -356 -818 -740 -1698 l-698 -1600 167 -3 c131
-2 177 1 218 14 62 19 138 75 176 129 15 22 84 168 152 325 l123 285 870 3
870 2 30 -67 c17 -38 77 -174 134 -303 92 -210 108 -240 154 -285 27 -28 73
-62 100 -75 47 -23 62 -25 238 -28 l187 -4 -9 24 c-9 24 -1439 3302 -1462
3351 l-12 27 -228 0 -227 0 -43 -97z m285 -547 c4 -32 116 -300 326 -783 176
-403 320 -738 320 -743 0 -6 -247 -10 -660 -10 -415 0 -660 4 -660 10 0 5 140
330 311 722 299 686 339 786 339 853 1 43 16 12 24 -49z"/>
<path d="M5430 5909 c-792 -89 -1427 -732 -1510 -1529 -48 -469 91 -915 403
-1286 214 -255 542 -463 860 -545 209 -54 159 -52 1375 -56 929 -3 1132 -2
1126 9 -21 36 -210 287 -238 317 -43 46 -132 105 -191 127 -40 14 -89 19 -242
22 -106 2 -193 6 -193 9 0 3 34 41 75 85 139 148 292 408 358 609 113 342 109
750 -9 1090 -186 536 -627 948 -1174 1099 -178 49 -455 70 -640 49z m481 -502
c53 -14 131 -39 175 -57 374 -150 653 -480 746 -882 28 -122 31 -393 5 -506
-56 -246 -172 -457 -342 -627 -494 -493 -1277 -485 -1760 17 -301 312 -414
745 -304 1173 90 351 365 668 709 816 176 76 305 99 520 94 124 -3 174 -8 251
-28z"/>
<path d="M8460 4812 c0 -1230 -2 -1197 66 -1402 134 -403 461 -729 869 -863
134 -44 213 -58 380 -63 237 -9 426 28 622 121 398 188 663 520 766 960 21 88
21 112 24 1223 l4 1132 -236 0 -235 0 0 -1090 c0 -1200 2 -1165 -61 -1317
-109 -261 -316 -450 -583 -532 -299 -92 -644 -7 -874 213 -117 112 -208 265
-254 431 l-23 80 -3 1108 -3 1107 -229 0 -230 0 0 -1108z"/>
<path d="M13216 5838 c-20 -46 -353 -810 -741 -1698 l-704 -1615 167 -3 c131
-2 177 1 218 14 62 19 138 75 177 129 15 23 83 169 151 325 l124 285 871 0
872 0 128 -292 c70 -161 141 -309 156 -329 35 -46 103 -94 163 -116 60 -22
398 -27 389 -5 -3 6 -336 770 -741 1697 l-735 1685 -229 3 -229 2 -37 -82z
m287 -588 c9 -36 155 -386 326 -777 171 -392 311 -717 311 -723 0 -7 -226 -10
-660 -10 -384 0 -660 4 -660 9 0 5 140 329 310 721 298 682 339 786 341 855 0
25 2 27 8 10 5 -11 15 -49 24 -85z"/>
<path d="M24090 4221 l0 -1701 235 0 235 0 0 705 0 705 254 0 254 0 457 -617
c252 -340 478 -640 504 -666 52 -54 137 -101 214 -117 30 -6 135 -9 249 -8
l197 3 -535 723 c-294 397 -532 727 -529 732 4 6 12 10 20 10 7 0 57 22 112
49 244 123 428 342 510 607 26 84 27 100 27 279 0 178 -2 195 -27 278 -106
345 -369 597 -719 689 -81 21 -101 22 -770 25 l-688 4 0 -1700z m1395 1202
c233 -89 382 -331 348 -567 -27 -192 -163 -359 -348 -428 -58 -22 -72 -23
-492 -26 l-433 -3 0 526 0 526 433 -3 c420 -3 434 -4 492 -25z"/>
<path d="M27590 4220 l0 -1701 763 4 c747 3 764 4 862 26 680 152 1180 654
1327 1331 20 92 22 133 22 335 0 257 -12 340 -80 544 -188 564 -690 1009
-1269 1125 -156 31 -277 36 -947 36 l-678 0 0 -1700z m1486 1215 c327 -57 632
-255 814 -526 254 -381 287 -819 91 -1224 -187 -387 -542 -642 -966 -694 -53
-6 -269 -11 -522 -11 l-433 0 0 1235 0 1235 464 0 c373 0 481 -3 552 -15z"/>
<path d="M7373 1529 c-288 -28 -437 -151 -450 -372 -9 -137 31 -218 143 -292
79 -53 153 -80 348 -129 351 -89 466 -169 466 -326 -1 -152 -97 -242 -298
-277 -171 -30 -349 0 -447 75 -62 47 -111 138 -127 235 l-11 67 -68 0 -67 0 5
-42 c27 -229 135 -370 328 -431 61 -19 91 -22 240 -21 125 0 189 5 240 17 226
55 335 186 335 401 0 72 -4 91 -31 144 -63 128 -202 206 -464 262 -256 56
-390 119 -442 208 -23 38 -25 51 -20 108 9 116 80 196 213 240 82 27 295 27
371 1 105 -37 181 -115 203 -210 18 -74 32 -87 97 -87 l54 0 -6 38 c-29 169
-98 272 -224 336 -93 48 -246 69 -388 55z"/>
<path d="M22193 1529 c-288 -28 -437 -151 -450 -372 -9 -137 31 -218 143 -292
79 -53 153 -80 348 -129 349 -88 469 -172 467 -327 -2 -151 -100 -241 -299
-276 -171 -30 -349 0 -447 75 -62 47 -111 138 -127 235 l-11 67 -68 0 -67 0 5
-42 c17 -141 63 -246 143 -322 62 -60 107 -85 195 -113 83 -25 367 -25 470 0
226 55 335 186 335 401 0 72 -4 91 -31 144 -63 128 -202 206 -464 262 -256 56
-390 119 -442 208 -23 38 -25 51 -20 108 9 116 80 196 213 240 82 27 295 27
371 1 105 -37 181 -115 203 -210 18 -74 32 -87 97 -87 l54 0 -6 38 c-29 169
-98 272 -224 336 -93 48 -246 69 -388 55z"/>
<path d="M17588 1515 c-388 -74 -562 -353 -527 -848 26 -354 179 -562 465
-634 98 -25 363 -24 454 1 143 39 261 122 322 227 27 46 61 139 71 197 l7 32
-74 0 -74 0 -6 -32 c-10 -56 -63 -155 -107 -203 -107 -116 -279 -163 -469
-131 -183 32 -311 120 -383 263 -62 122 -71 174 -72 388 0 172 2 197 23 265
35 109 68 167 131 230 90 90 200 135 361 146 222 16 397 -63 466 -209 13 -29
24 -57 24 -63 0 -5 13 -23 30 -39 25 -24 41 -30 90 -33 l61 -4 -7 28 c-19 86
-29 114 -56 166 -34 64 -120 151 -189 191 -110 64 -371 94 -541 62z"/>
<path d="M9172 1508 c-9 -9 -12 -189 -12 -750 l0 -738 500 0 500 0 0 55 0 55
-430 0 -430 0 0 310 0 310 325 0 325 0 10 26 c6 14 10 39 10 55 l0 29 -335 0
-335 0 0 275 0 275 430 0 430 0 0 55 0 55 -488 0 c-366 0 -491 -3 -500 -12z"/>
<path d="M11346 1504 c-14 -14 -16 -96 -16 -750 l0 -734 70 0 70 0 2 337 3
338 220 3 c121 1 249 -2 284 -7 156 -24 199 -106 220 -421 6 -85 16 -176 22
-203 l11 -47 73 0 73 0 -13 45 c-8 25 -19 123 -24 218 -10 171 -33 293 -65
355 -20 40 -73 91 -105 103 -25 10 -24 11 29 40 71 37 123 96 151 167 30 76
33 249 6 334 -23 77 -96 156 -175 191 -87 39 -165 47 -509 47 -270 0 -314 -2
-327 -16z m735 -122 c108 -43 162 -132 162 -267 0 -101 -27 -169 -90 -225 -78
-69 -103 -73 -410 -78 l-273 -3 0 294 c0 161 3 297 8 301 4 4 129 6 277 4 249
-4 274 -6 326 -26z"/>
<path d="M13430 1514 c0 -5 507 -1431 525 -1476 6 -15 20 -18 84 -18 l78 0
257 728 c141 400 259 738 263 751 6 23 5 24 -51 19 -39 -3 -63 -11 -75 -24
-10 -10 -118 -300 -241 -644 -122 -344 -226 -629 -230 -633 -4 -5 -14 11 -23
35 -40 114 -436 1235 -442 1251 -6 14 -20 17 -76 17 -38 0 -69 -3 -69 -6z"/>
<path d="M15792 1508 c-9 -9 -12 -189 -12 -750 l0 -738 70 0 70 0 0 750 0 750
-58 0 c-32 0 -63 -5 -70 -12z"/>
<path d="M19552 1508 c-9 -9 -12 -189 -12 -750 l0 -738 505 0 505 0 0 55 0 55
-435 0 -435 0 0 310 0 310 325 0 c310 0 325 1 335 19 5 11 10 36 10 55 l0 36
-335 0 -335 0 0 275 0 275 435 0 435 0 0 55 0 55 -493 0 c-370 0 -496 -3 -505
-12z"/>
</g>
</svg>
